<svg width="375" height="394" viewBox="0 0 375 394" fill="none" xmlns="http://www.w3.org/2000/svg">
<g filter="url(#filter0_d)">
<path fill-rule="evenodd" clip-rule="evenodd" d="M142.884 105.452C164.931 105.383 185.55 101.435 207.586 103.688C232.774 106.263 259.754 104.932 280.586 119.531C302.653 134.995 314.173 160.22 323.26 184.754C333.184 211.548 342.074 239.937 335.148 266.847C327.928 294.9 311.368 322.833 284.501 335.348C258.46 347.479 226.884 327.355 197.81 330.824C165.119 334.724 134.019 374.197 105.482 356.704C76.2201 338.767 98.1304 292.636 85.2766 261.842C74.9993 237.22 46.2664 222.735 38.9343 197.276C30.0346 166.374 16.1541 125.173 39.8802 104.214C65.0888 81.9455 107.862 105.562 142.884 105.452Z" fill="#EF5858"/>
</g>
<path fill-rule="evenodd" clip-rule="evenodd" d="M139.054 91.3867C160.585 89.1753 180.511 83.1447 202.156 83.304C226.897 83.486 253.177 79.5077 274.312 92.3817C296.7 106.019 309.314 130.638 319.513 154.79C330.652 181.167 340.867 209.272 335.554 237.402C330.016 266.728 315.349 296.838 289.783 312.217C265.002 327.124 233.075 309.656 204.864 316.018C173.145 323.172 144.898 366.47 116.081 351.391C86.5318 335.93 105.443 286.731 91.2265 256.558C79.8597 232.433 51.0136 220.442 42.4783 195.176C32.118 164.509 16.3371 123.815 38.3802 100.125C61.8006 74.9554 104.853 94.8994 139.054 91.3867Z" fill="#FFDE69"/>
<path d="M165.666 168.229C165.666 168.229 164.482 170.273 165.666 171.972H140.731V168.229H165.666Z" fill="#D0F3F1"/>
<path d="M166.074 172.101C166.074 172.187 166.031 172.274 165.967 172.338C165.902 172.403 165.816 172.446 165.73 172.446H128.641C127.974 172.446 127.415 171.908 127.415 171.219V169.111C127.415 168.444 127.952 167.885 128.641 167.885H165.73C165.924 167.885 166.074 168.035 166.074 168.229C166.074 168.423 165.924 168.573 165.73 168.573H142.689C142.237 168.573 141.872 168.939 141.872 169.391V170.961C141.872 171.413 142.237 171.779 142.689 171.779H165.73C165.924 171.757 166.074 171.908 166.074 172.101Z" fill="#EE504F"/>
<path d="M166.074 172.037C166.096 172.144 166.053 172.274 165.988 172.338C165.924 172.403 165.838 172.446 165.752 172.446H142.496C141.721 172.446 141.097 171.822 141.097 171.047V169.283C141.097 168.509 141.721 167.885 142.496 167.885H165.752C165.924 167.885 166.074 168.014 166.096 168.186C166.117 168.38 165.967 168.552 165.752 168.552H142.711C142.259 168.552 141.893 168.917 141.893 169.369V170.94C141.893 171.391 142.259 171.757 142.711 171.757H165.752C165.881 171.757 166.031 171.865 166.074 172.037Z" fill="#D34848"/>
<path d="M165.515 179.76C165.515 179.76 164.289 182.88 165.515 185.612H146.777V179.76H165.515Z" fill="#D0F3F1"/>
<path d="M166.182 185.698C166.182 185.827 166.139 185.956 166.053 186.042C165.967 186.128 165.859 186.171 165.73 186.171H126.167C125.134 186.171 124.274 185.332 124.274 184.278V181.008C124.274 179.976 125.113 179.115 126.167 179.115H165.73C165.967 179.115 166.182 179.309 166.182 179.545C166.182 179.803 165.988 179.997 165.752 179.997H148.95C148.111 179.997 147.422 180.685 147.422 181.525V183.697C147.422 184.536 148.111 185.225 148.95 185.225H165.73C165.967 185.289 166.182 185.461 166.182 185.698Z" fill="#197A83"/>
<path d="M166.182 185.698C166.182 185.827 166.139 185.956 166.053 186.042C165.967 186.128 165.859 186.171 165.73 186.171H148.541C147.379 186.171 146.433 185.225 146.433 184.063V181.245C146.433 180.083 147.379 179.136 148.541 179.136H165.73C165.967 179.136 166.182 179.33 166.182 179.567C166.182 179.825 165.988 180.019 165.752 180.019H148.95C148.111 180.019 147.422 180.707 147.422 181.546V183.719C147.422 184.558 148.111 185.246 148.95 185.246H165.73C165.967 185.289 166.182 185.461 166.182 185.698Z" fill="#156468"/>
<path d="M164.031 181.159H153.575V181.223H164.031V181.159Z" fill="#373133"/>
<path d="M159.577 181.159L160.352 184.644L161.148 183.375V181.417L159.577 181.159Z" fill="#3793FD"/>
<path d="M163.45 182.062V184.644L161.922 183.504L160.33 184.644V182.062C160.33 181.438 159.577 181.159 159.577 181.159H162.934C163.45 181.309 163.45 181.976 163.45 182.062Z" fill="#6D68E0"/>
<path d="M163.45 182.062H160.352V182.041C160.352 181.417 159.599 181.137 159.599 181.137H162.955C163.45 181.309 163.45 181.976 163.45 182.062Z" fill="#5A5ABA"/>
<path d="M126.102 172.768C126.102 172.768 127.35 176.167 126.102 178.728H150.692V172.768H126.102Z" fill="#D0F3F1"/>
<path d="M167.623 174.662V176.899C167.623 178.147 166.612 179.158 165.364 179.158H126.145C125.952 179.158 125.801 179.007 125.801 178.814V178.792C125.801 178.599 125.952 178.448 126.145 178.448H148.433C149.315 178.448 150.047 177.716 150.047 176.834V174.748C150.047 173.866 149.315 173.134 148.433 173.134H126.145C126.038 173.134 125.952 173.091 125.887 173.027C125.823 172.962 125.78 172.854 125.78 172.747C125.801 172.553 125.952 172.424 126.145 172.424H165.364C166.612 172.403 167.623 173.414 167.623 174.662Z" fill="#F1884F"/>
<path d="M151.058 174.446V177.136C151.058 178.254 150.155 179.158 149.036 179.158H126.167C125.973 179.158 125.823 179.007 125.823 178.814V178.792C125.823 178.599 125.973 178.448 126.167 178.448H148.455C149.337 178.448 150.069 177.717 150.069 176.834V174.748C150.069 173.866 149.337 173.134 148.455 173.134H126.167C126.059 173.134 125.973 173.091 125.909 173.027C125.844 172.962 125.801 172.854 125.801 172.747C125.823 172.553 125.973 172.424 126.167 172.424H149.036C150.155 172.403 151.058 173.328 151.058 174.446Z" fill="#D37146"/>
<path d="M140.129 176.748H129.674V176.813H140.129V176.748Z" fill="#373133"/>
<path d="M137.677 176.727H136.343V178.426H137.677V176.727Z" fill="#3793FD"/>
<path d="M136.902 178.211V183.611L135.439 182.299L134.041 183.611V178.427L136.902 178.211Z" fill="#A82329"/>
<path d="M137.677 176.727H134.837C134.837 176.727 134.837 177.996 134.041 178.426H136.881C136.881 178.426 137.677 178.211 137.677 176.727Z" fill="#EE504F"/>
<path d="M160.18 161.388C160.18 161.388 159.212 164.12 160.18 167.132H135.525V161.495L160.18 161.388Z" fill="#D0F3F1"/>
<path d="M136.665 160.592H160.223C160.502 160.592 160.718 160.807 160.718 161.087C160.718 161.366 160.502 161.581 160.223 161.581H136.902C136.235 161.581 135.676 162.119 135.676 162.808V165.669C135.676 166.336 136.214 166.895 136.902 166.895H160.223C160.502 166.895 160.718 167.11 160.718 167.39V167.433C160.718 167.713 160.502 167.928 160.223 167.928H136.665C135.697 167.928 134.901 167.132 134.901 166.164V162.399C134.901 161.388 135.697 160.592 136.665 160.592Z" fill="#6D68E0"/>
<path d="M157.039 165.196H146.583V165.26H157.039V165.196Z" fill="#373133"/>
<path d="M153.64 165.196H152.542V166.874H153.64V165.196Z" fill="#3793FD"/>
<path d="M153.295 166.68V171.069L154.608 169.757L155.942 171.069V166.895L153.295 166.68Z" fill="#156468"/>
<path d="M152.542 165.196H155.146C155.146 165.196 155.146 166.465 155.942 166.874H153.338C153.338 166.895 152.542 166.68 152.542 165.196Z" fill="#197A83"/>
<path d="M47.7716 164.4C47.7716 164.4 45.7924 192.841 80.1495 188.086L82.1287 192.819C82.1287 192.819 91.8959 174.145 75.8037 171.09C72.5982 170.488 62.7665 170.703 62.7665 170.703L47.7716 164.4Z" fill="#5CC2AD"/>
<path d="M52.9133 217.323C52.9133 217.323 48.9548 219.689 41.8554 229.951L39.0801 224.422L48.5676 214.16L52.9133 217.323Z" fill="black"/>
<path d="M41.8553 229.951C41.8553 229.951 33.9599 221.647 38.3056 214.16C38.3056 214.16 42.2641 207.448 49.3635 208.244C49.3635 208.244 61.6047 194.82 76.6211 203.102C76.6211 203.102 79.7837 220.873 49.7723 219.302C49.7508 219.281 39.8761 219.281 41.8553 229.951Z" fill="#5CC2AD"/>
<path d="M41.5325 230.016C39.8759 222.572 42.0272 216.957 44.1356 213.58C46.416 209.922 49.0407 208.029 49.1698 207.965L49.5355 208.502C49.514 208.524 46.8893 210.396 44.6734 213.967C42.6511 217.237 40.5643 222.68 42.1563 229.887L41.5325 230.016Z" fill="#17311D"/>
<path d="M91.4224 207.255C91.4224 207.255 94.1976 198.176 102.868 198.95C102.868 198.95 107.644 191.958 116.701 198.154C119.863 200.327 122.617 202.887 121.434 212.762C121.434 212.762 118.465 207.835 110.763 207.62C105.535 207.513 91.4224 207.255 91.4224 207.255Z" fill="#5CC2AD"/>
<path d="M121.133 212.87C118.616 205.34 113.754 202.07 110.096 200.65C106.138 199.122 102.76 199.359 102.717 199.359L102.674 198.714C102.825 198.692 106.245 198.455 110.333 200.026C114.098 201.489 119.153 204.866 121.735 212.633L121.133 212.87Z" fill="#17311D"/>
<path d="M83.7207 226.014H70.6835C67.9083 226.014 65.4557 227.413 63.8207 228.682C62.4223 229.758 61.6048 230.747 61.6048 230.747C61.3466 227.542 62.702 224.53 64.5736 222.422C65.4772 221.41 66.5099 220.614 67.521 220.098C79.8052 213.945 83.7207 226.014 83.7207 226.014Z" fill="#197A83"/>
<path d="M78.5788 226.036C77.0729 218.226 70.9845 218.958 70.9415 218.979L70.877 218.549C70.9415 218.549 77.4171 217.753 79.0091 225.95L78.5788 226.036Z" fill="#020403"/>
<path d="M79.1029 224.836L78.0417 225.012L81.6405 246.66L82.7017 246.483L79.1029 224.836Z" fill="#22452A"/>
<path d="M85.4416 247.012L84.3659 246.861C86.0655 235.007 85.7213 228.295 85.1619 223.304C84.1938 214.655 81.4401 209.772 79.2887 207.169C76.9868 204.372 74.8784 203.619 74.8569 203.597L75.2227 202.586C75.3087 202.629 77.5676 203.425 80.0632 206.416C82.3221 209.126 85.2265 214.225 86.2376 223.175C86.797 228.252 87.1411 235.029 85.4416 247.012Z" fill="#5CC2AD"/>
<path d="M85.3557 224.164C83.8068 204.178 81.053 188.129 81.01 187.979L82.0642 187.785C82.0857 187.936 84.8609 204.028 86.4099 224.078L85.3557 224.164Z" fill="#5CC2AD"/>
<path d="M90.3682 248.044L89.314 247.829C95.9401 216.656 96.0262 204.996 96.0262 204.888H97.1019C97.0804 204.996 97.0158 216.742 90.3682 248.044Z" fill="#5CC2AD"/>
<path d="M82.021 192.69C81.9995 192.561 79.9557 179.782 71.1351 175.565C68.7256 174.403 61.7122 170.854 61.6477 170.832L61.9489 170.251C62.0134 170.294 69.0268 173.844 71.4148 174.984C80.5366 179.351 82.6234 192.475 82.6449 192.604L82.021 192.69Z" fill="#17311D"/>
<path d="M63.8207 228.682C62.4223 229.758 61.6048 230.747 61.6048 230.747C61.3466 227.542 62.702 224.53 64.5736 222.422C64.1864 223.928 63.6486 226.445 63.8207 228.682Z" fill="#020403"/>
<path d="M66.9399 244.774H104.847L99.3178 283.864H72.469L66.9399 244.774Z" fill="#197A83"/>
<path d="M129.631 188.71L103.492 283.843H98.479L124.639 188.71H129.631Z" fill="#3793FD"/>
<path d="M124.639 188.71L150.778 283.843H155.791L129.631 188.71H124.639Z" fill="#3793FD"/>
<path d="M283.345 188.71H236.746V283.843H283.345V188.71Z" fill="#3793FD"/>
<path d="M146.045 188.71L172.206 283.843H177.197L151.058 188.71H146.045Z" fill="#3793FD"/>
<path d="M148.003 188.71L174.142 283.843H179.155L152.994 188.71H148.003Z" fill="#D0F3F1"/>
<path d="M151.058 188.71L124.898 283.843H119.906L146.045 188.71H151.058Z" fill="#3793FD"/>
<path d="M152.994 188.71L126.855 283.843H121.843L148.003 188.71H152.994Z" fill="#D0F3F1"/>
<path d="M136.042 186.214V191.205H282.355V283.843H324.371V186.214H136.042Z" fill="#D0F3F1"/>
<path d="M142.431 186.214H109.881V191.227H142.431V186.214Z" fill="#3793FD"/>
<path d="M285.431 193.443V281.067H322.155V193.443H285.431ZM321.036 279.949H286.55V263.684H297.673V266.61H310.989V263.684H321.058V279.949H321.036ZM321.036 262.566H286.55V245.312H297.673V248.238H310.989V245.312H321.058V262.566H321.036ZM321.036 244.215H286.55V228.445H297.673V231.264H310.989V228.445H321.058V244.215H321.036ZM321.036 227.327H286.55V211.665H297.673V214.591H310.989V211.665H321.058V227.327H321.036ZM321.036 210.546H286.55V194.54H297.673V197.315H310.989V194.54H321.058V210.546H321.036Z" fill="#3793FD"/>
<path d="M190.234 168.875L187.653 186.3H200.346L202.927 168.875H190.234Z" fill="#373133"/>
<path d="M161.298 130.344L163.902 168.681C164.009 170.316 165.365 171.585 167 171.585H226.958C228.765 171.585 230.185 170.058 230.056 168.272L227.453 129.935C227.345 128.3 225.99 127.031 224.355 127.031H164.396C162.611 127.031 161.191 128.558 161.298 130.344Z" fill="#373133"/>
<path d="M192.601 168.875L190.019 186.3H202.712L205.294 168.875H192.601Z" fill="#6D68E0"/>
<path d="M229.561 171.607H169.603C167.968 171.607 166.612 170.337 166.505 168.702L166.182 164.034L163.88 130.365C163.751 128.558 165.192 127.031 166.978 127.031H226.936C228.571 127.031 229.927 128.3 230.034 129.935L232.358 164.034L232.637 168.272C232.788 170.079 231.368 171.607 229.561 171.607Z" fill="#6D68E0"/>
<path d="M169.409 163.797L167.344 133.119C167.236 131.57 168.527 130.258 170.14 130.258H224.333C225.817 130.258 227.044 131.355 227.13 132.753L229.217 163.797H169.409Z" fill="white"/>
<path d="M185.179 183.719H170.872V186.301H185.179V183.719Z" fill="#373133"/>
<path d="M222.612 183.719H184.426V186.301H222.612V183.719Z" fill="#6D68E0"/>
<path d="M181.822 167.498H172.916V173.306C172.916 173.306 172.916 175.587 175.196 175.802H184.318C184.318 175.802 182.339 175.694 181.93 173.414L181.822 167.498Z" fill="#FC2B45"/>
<path d="M192.794 165.131H183.888V170.94C183.888 170.94 183.888 173.22 186.168 173.435H195.29C195.29 173.435 193.311 173.328 192.902 171.047L192.794 165.131Z" fill="#FD9E28"/>
<path d="M180.809 130.205L179.306 130.302L181.457 163.86L182.96 163.764L180.809 130.205Z" fill="#D0F3F1"/>
<path d="M212.005 130.205L210.502 130.302L212.654 163.86L214.156 163.764L212.005 130.205Z" fill="#D0F3F1"/>
<path d="M183.888 136.497L184.533 145.963H208.628L207.983 136.497H183.888Z" fill="#D0F3F1"/>
<path d="M214.222 136.841L214.501 140.799H224.548L224.269 136.841H214.222Z" fill="#D0F3F1"/>
<path d="M214.867 145.231L215.147 149.19H225.194L224.914 145.231H214.867Z" fill="#D0F3F1"/>
<path d="M215.512 153.622L215.792 157.58H225.839L225.559 153.622H215.512Z" fill="#D0F3F1"/>
<path d="M184.748 150.265L185.394 159.731H209.489L208.843 150.265H184.748Z" fill="#D0F3F1"/>
<path d="M192.708 132.947H183.888V134.023H192.708V132.947Z" fill="#D0F3F1"/>
<path d="M177.864 133.054H169.043V134.13H177.864V133.054Z" fill="#D0F3F1"/>
<path d="M178.079 136.066H169.259V137.142H178.079V136.066Z" fill="#D0F3F1"/>
<path d="M178.294 139.078H169.474V140.154H178.294V139.078Z" fill="#D0F3F1"/>
<path d="M178.509 142.09H169.689V143.166H178.509V142.09Z" fill="#D0F3F1"/>
<path d="M178.724 145.102H169.904V146.178H178.724V145.102Z" fill="#D0F3F1"/>
<path d="M219.6 133.27H214.007V134.345H219.6V133.27Z" fill="#D0F3F1"/>
<path d="M265.187 143.489L265.209 137.271C265.209 137.271 255.011 139.896 259.852 120.641C259.852 120.641 266.37 113.8 274.481 120.641L275.342 134.625L276.503 142.865L265.187 143.489Z" fill="#FCBB9D"/>
<path d="M279.752 120.727C280.591 112.897 276.266 113.822 276.266 113.822C271.921 107.604 269.726 111.305 269.726 111.305C266.069 108.034 264.929 111.197 264.929 111.197C261.336 109.713 260.691 112.897 260.691 112.897C257.313 112.251 257.507 115.435 257.507 115.435C256.237 115.65 255.979 117.307 256.022 117.974C256.323 122.233 259.357 122.556 261.035 122.406L261.422 127.59C261.465 128.085 261.938 128.408 262.412 128.257C262.691 128.171 262.885 127.934 262.95 127.655C262.971 127.59 262.971 127.526 262.971 127.483C263.337 125.633 266.327 124.213 266.758 127.483C266.758 127.483 267.08 131.699 264.864 131.785C264.864 131.785 267.252 136.82 272.932 135.765C273.878 135.593 280.096 134.023 279.601 123.202C279.795 121.76 279.752 120.727 279.752 120.727Z" fill="#373133"/>
<path d="M255.958 170.058L247.653 178.19C246.9 178.922 245.954 179.416 244.921 179.61L217.986 184.795L210.887 185.225C210.887 185.225 212.178 183.504 213.899 183.074H209.166L204.454 185.117C203.895 185.354 203.25 185.139 202.97 184.601C202.712 184.106 202.841 183.482 203.293 183.117L208.305 179.309C209.123 178.685 210.155 178.384 211.188 178.491L217.857 179.115L220.31 179.997L241.974 170.058L252.193 159.839L255.958 170.058Z" fill="#CC8772"/>
<path d="M208.413 264.803L204.089 274.42L202.26 278.486H194.171L196.236 272.484L198.839 264.933L208.413 264.803Z" fill="#FCBB9D"/>
<path d="M203.508 275.732C202.798 276.464 199.915 278.895 195.161 275.582C195.118 275.56 195.075 275.539 195.01 275.582L181.865 282.617C181.241 282.939 181.478 283.886 182.188 283.886H203.637C204.627 283.886 205.358 282.961 205.143 282.014L203.744 275.84C203.723 275.689 203.594 275.646 203.508 275.732Z" fill="#4F216C"/>
<path d="M240.253 264.804L237.263 274.485L236.036 278.486H227.947L229.044 272.914L230.68 264.718L240.253 264.804Z" fill="#FCBB9D"/>
<path d="M240.253 264.804L237.263 274.485L229.044 272.914L230.679 264.718L240.253 264.804Z" fill="#E6A68A"/>
<path d="M236.854 275.732C236.144 276.464 233.261 278.895 228.507 275.582C228.464 275.56 228.421 275.539 228.356 275.582L215.211 282.617C214.587 282.939 214.824 283.886 215.534 283.886H236.983C237.972 283.886 238.704 282.961 238.489 282.014L237.09 275.84C237.069 275.689 236.94 275.646 236.854 275.732Z" fill="#4F216C"/>
<path d="M237.564 209.535L227.775 271.387L241.974 272.247L258.217 209.535H237.564Z" fill="#311547"/>
<path d="M208.413 264.803L204.089 274.42L196.236 272.484L198.839 264.933L208.413 264.803Z" fill="#E6A68A"/>
<path d="M250.58 171.564L245.674 175.694L243.265 177.717C242.684 178.211 241.996 178.534 241.264 178.706L208.198 186.193C205.573 186.645 202.906 185.548 200.991 184.429C200.345 184.321 199.722 184.235 199.119 184.149C198.108 186.279 195.29 187.075 195.29 187.075L196.495 182.708C196.667 182.105 197.054 181.611 197.592 181.309L201.83 178.9C202.884 178.298 204.153 178.276 205.229 178.792L206.778 179.545L236.058 169.477L240.468 164.615L242.878 161.947L250.58 171.564Z" fill="#FCBB9D"/>
<path d="M250.579 171.564L245.674 175.695L240.468 164.658L242.878 161.99L250.579 171.564Z" fill="#E6A68A"/>
<path d="M256.022 193.185L253.656 196.197L230.959 198.929C225.193 199.618 220.31 203.49 218.309 208.933L195.72 270.096L210.995 272.462L234.918 220.894C234.918 220.894 293.069 230.339 286.615 200.048L256.022 193.185Z" fill="#4F216C"/>
<path d="M260.906 141.961C260.755 142.004 255.764 144.113 252.967 147.813C248.191 154.138 241.199 163.324 241.199 163.324L248.901 173.715L252.408 170.23L251.978 188.086L249.504 196.304C249.504 196.304 253.548 199.402 257.033 201.037C270.802 207.491 289.304 204.91 289.304 204.91L287.066 161.818C287.066 161.818 287.647 146.608 281.559 141.875C281.559 141.875 274.223 138.11 260.906 141.961Z" fill="#F1884F"/>
<path d="M255.78 167.477L248.678 173.505L249.095 173.997L256.197 167.969L255.78 167.477Z" fill="#373133"/>
<path d="M266.177 242.58H262.455V268.245H266.177V242.58Z" fill="#D0F3F1"/>
<path d="M259.421 229.371V240.127C259.421 242.838 261.616 245.032 264.326 245.032C267.037 245.032 269.232 242.838 269.232 240.127V229.371H259.421Z" fill="#D0F3F1"/>
<path d="M248.944 225.907V226.768C248.944 228.768 250.558 230.382 252.559 230.382H281.021C283.022 230.382 284.635 228.768 284.635 226.768V225.907H248.944Z" fill="#D0F3F1"/>
<path d="M262.369 220.873V227.348H289.39C291.175 227.348 292.617 225.907 292.617 224.121C292.617 222.336 291.175 220.894 289.39 220.894H262.369V220.873Z" fill="#D34848"/>
<path d="M239.349 224.1C239.349 225.885 240.791 227.327 242.576 227.327H261.809C263.595 227.327 265.036 225.885 265.036 224.1C265.036 222.314 263.595 220.873 261.809 220.873H242.576C240.791 220.873 239.349 222.314 239.349 224.1Z" fill="#EE504F"/>
<path d="M239.371 274.571L257.292 269.751V269.687C257.292 265.836 260.411 262.717 264.262 262.717C268.113 262.717 271.232 265.836 271.232 269.687V270.031L288.099 274.549C289.153 274.829 289.798 275.883 289.562 276.959C289.325 278.034 288.271 278.723 287.195 278.507L269.748 275.151H264.133H263.38H257.743L240.296 278.507C239.22 278.723 238.166 278.034 237.929 276.959C237.693 275.904 238.317 274.85 239.371 274.571Z" fill="#D0F3F1"/>
<path d="M283.968 283.864C285.762 283.864 287.217 282.41 287.217 280.616C287.217 278.822 285.762 277.367 283.968 277.367C282.174 277.367 280.72 278.822 280.72 280.616C280.72 282.41 282.174 283.864 283.968 283.864Z" fill="#373133"/>
<path d="M283.968 282.423C284.966 282.423 285.775 281.614 285.775 280.616C285.775 279.618 284.966 278.809 283.968 278.809C282.97 278.809 282.161 279.618 282.161 280.616C282.161 281.614 282.97 282.423 283.968 282.423Z" fill="#3793FD"/>
<path d="M243.587 283.864C245.382 283.864 246.836 282.41 246.836 280.616C246.836 278.822 245.382 277.367 243.587 277.367C241.793 277.367 240.339 278.822 240.339 280.616C240.339 282.41 241.793 283.864 243.587 283.864Z" fill="#373133"/>
<path d="M243.587 282.423C244.585 282.423 245.395 281.614 245.395 280.616C245.395 279.618 244.585 278.809 243.587 278.809C242.589 278.809 241.78 279.618 241.78 280.616C241.78 281.614 242.589 282.423 243.587 282.423Z" fill="#3793FD"/>
<path d="M104.137 74H158.287C159.384 74 160.287 74.9036 160.287 76.0008V115.779C160.287 116.876 159.384 117.78 158.287 117.78H104.137C103.04 117.78 102.136 116.876 102.136 115.779V76.0008C102.136 74.9036 103.04 74 104.137 74Z" fill="#D0F3F1"/>
<path d="M139.677 83.9607H104.998V102.979H139.677V83.9607Z" fill="white"/>
<path d="M147.379 77.5713H111.172V79.8732H147.379V77.5713Z" fill="#3793FD"/>
<path d="M152.349 79.9163C153.002 79.9163 153.532 79.3865 153.532 78.733C153.532 78.0796 153.002 77.5498 152.349 77.5498C151.695 77.5498 151.166 78.0796 151.166 78.733C151.166 79.3865 151.695 79.9163 152.349 79.9163Z" fill="#3793FD"/>
<path d="M155.468 79.9163C156.122 79.9163 156.651 79.3865 156.651 78.733C156.651 78.0796 156.122 77.5498 155.468 77.5498C154.815 77.5498 154.285 78.0796 154.285 78.733C154.285 79.3865 154.815 79.9163 155.468 79.9163Z" fill="#3793FD"/>
<path d="M149.681 83.9177H141.743V90.2212H149.681V83.9177Z" fill="#3793FD"/>
<path d="M155.942 83.9177H151.166V85.0364H155.942V83.9177Z" fill="#3793FD"/>
<path d="M158.287 86.4563H151.166V87.575H158.287V86.4563Z" fill="#3793FD"/>
<path d="M155.942 92.5232H151.166V93.6419H155.942V92.5232Z" fill="#3793FD"/>
<path d="M158.287 95.0618H151.166V96.1805H158.287V95.0618Z" fill="#3793FD"/>
<path d="M155.942 100.978H151.166V102.097H155.942V100.978Z" fill="#3793FD"/>
<path d="M158.287 103.517H151.166V104.635H158.287V103.517Z" fill="#3793FD"/>
<path d="M155.942 109.433H151.166V110.552H155.942V109.433Z" fill="#3793FD"/>
<path d="M158.287 111.971H151.166V113.09H158.287V111.971Z" fill="#3793FD"/>
<path d="M149.681 92.4585H141.743V98.762H149.681V92.4585Z" fill="#3793FD"/>
<path d="M149.681 101.021H141.743V107.324H149.681V101.021Z" fill="#3793FD"/>
<path d="M149.681 109.497H141.743V115.801H149.681V109.497Z" fill="#3793FD"/>
<path d="M128.706 104.786H104.761V106.808H128.706V104.786Z" fill="#3793FD"/>
<path d="M107.343 113.778C108.768 113.778 109.924 112.623 109.924 111.197C109.924 109.771 108.768 108.615 107.343 108.615C105.917 108.615 104.761 109.771 104.761 111.197C104.761 112.623 105.917 113.778 107.343 113.778Z" fill="#3793FD"/>
<path d="M120.724 108.637H112.118V110.508H120.724V108.637Z" fill="#3793FD"/>
<path d="M119.39 89.5112V97.4067L125.306 93.4482L119.39 89.5112Z" fill="#E8315D"/>
<path d="M109.193 77.5713H104.976V79.9378H109.193V77.5713Z" fill="#3793FD"/>
<path d="M192.859 97.127H174.96C174.551 97.127 174.207 97.4712 174.207 97.8799V111.498C174.207 111.907 174.551 112.251 174.96 112.251H185.63L190.707 116.704V112.251H192.837C193.246 112.251 193.59 111.907 193.59 111.498V97.8799C193.612 97.4712 193.268 97.127 192.859 97.127Z" fill="#D0F3F1"/>
<path d="M181.908 100.913V108.314L187.696 104.614L181.908 100.913Z" fill="#E8315D"/>
<path d="M240.274 87.2094C240.274 86.564 239.737 86.0261 239.091 86.0261H214.286C213.641 86.0261 213.103 86.564 213.103 87.2094V106.744C213.103 107.389 213.641 107.927 214.286 107.927H216.782V113.736L221.859 107.927H239.091C239.737 107.927 240.274 107.389 240.274 106.744V87.2094Z" fill="#D0F3F1"/>
<path d="M236.359 92.1145H217.427V93.8356H236.359V92.1145Z" fill="#3793FD"/>
<path d="M236.38 95.7932H217.448V97.5143H236.38V95.7932Z" fill="#3793FD"/>
<path d="M236.38 99.4937H217.448V101.215H236.38V99.4937Z" fill="#3793FD"/>
<path d="M73.3081 129.247V136.368C73.3081 137.25 74.0181 137.938 74.8786 137.938H130.405C131.287 137.938 131.975 137.228 131.975 136.368V129.247C131.975 128.365 131.266 127.676 130.405 127.676H74.8786C74.0181 127.676 73.3081 128.386 73.3081 129.247Z" fill="#D0F3F1"/>
<path d="M73.3081 142.413V149.534C73.3081 150.416 74.0181 151.104 74.8786 151.104H130.405C131.287 151.104 131.975 150.395 131.975 149.534V142.413C131.975 141.531 131.266 140.843 130.405 140.843H74.8786C74.0181 140.843 73.3081 141.552 73.3081 142.413Z" fill="#D0F3F1"/>
<path d="M113 132.259H76.6426V133.356H113V132.259Z" fill="#3793FD"/>
<path d="M79.0953 145.984L80.5582 146.802L80.0634 147.684L78.5574 146.802L78.579 148.458H77.5893L77.6109 146.802L76.1265 147.662L75.6101 146.78L77.0946 145.963L75.6101 145.145L76.1265 144.263L77.6109 145.145L77.5893 143.489H78.579L78.5574 145.145L80.0634 144.263L80.5582 145.145L79.0953 145.984Z" fill="#3793FD"/>
<path d="M87.1844 145.984L88.6473 146.802L88.1525 147.684L86.6466 146.802L86.6681 148.458H85.6785L85.7 146.802L84.2155 147.662L83.6992 146.78L85.1836 145.963L83.6992 145.145L84.2155 144.263L85.7 145.145L85.6785 143.489H86.6681L86.6466 145.145L88.1525 144.263L88.6473 145.145L87.1844 145.984Z" fill="#3793FD"/>
<path d="M95.2733 145.984L96.7362 146.802L96.2414 147.684L94.7355 146.802L94.757 148.458H93.7674L93.7889 146.802L92.3044 147.662L91.7881 146.78L93.2726 145.963L91.7881 145.145L92.3044 144.263L93.7889 145.145L93.7674 143.489H94.757L94.7355 145.145L96.2414 144.263L96.7362 145.145L95.2733 145.984Z" fill="#3793FD"/>
<path d="M103.362 145.984L104.825 146.802L104.33 147.684L102.825 146.802L102.846 148.458H101.856L101.878 146.802L100.394 147.662L99.8772 146.78L101.362 145.963L99.8772 145.145L100.394 144.263L101.878 145.145L101.856 143.489H102.846L102.825 145.145L104.33 144.263L104.825 145.145L103.362 145.984Z" fill="#3793FD"/>
<path d="M111.538 145.984L113.001 146.802L112.506 147.684L111 146.802L111.021 148.458H110.032L110.053 146.802L108.569 147.662L108.052 146.78L109.537 145.963L108.052 145.145L108.569 144.263L110.053 145.145L110.032 143.489H111.021L111 145.145L112.506 144.263L113.001 145.145L111.538 145.984Z" fill="#3793FD"/>
<path d="M339 283.757H47.707V284.833H339V283.757Z" fill="#373133"/>
<defs>
<filter id="filter0_d" x="11.7268" y="89.6509" width="330.881" height="286.502" filterUnits="userSpaceOnUse" color-interpolation-filters="sRGB">
<feFlood flood-opacity="0" result="BackgroundImageFix"/>
<feColorMatrix in="SourceAlpha" type="matrix" values="0 0 0 0 0 0 0 0 0 0 0 0 0 0 0 0 0 0 127 0" result="hardAlpha"/>
<feOffset dx="-5" dy="5"/>
<feGaussianBlur stdDeviation="5"/>
<feColorMatrix type="matrix" values="0 0 0 0 0.937255 0 0 0 0 0.345098 0 0 0 0 0.345098 0 0 0 0.2 0"/>
<feBlend mode="normal" in2="BackgroundImageFix" result="effect1_dropShadow"/>
<feBlend mode="normal" in="SourceGraphic" in2="effect1_dropShadow" result="shape"/>
</filter>
</defs>
</svg>
